<svg version="1.1" id="Layer_1" xmlns="http://www.w3.org/2000/svg" xmlns:xlink="http://www.w3.org/1999/xlink" x="0px" y="0px"
	 width="100%" viewBox="0 0 672 1024" enable-background="new 0 0 672 1024" xml:space="preserve">
<path fill="#000000" opacity="1.000000" stroke="none" 
	d="
M90.416763,462.409363 
	C83.796982,432.293732 82.910637,402.382294 86.558319,372.220917 
	C98.180702,276.119934 167.997879,187.182388 274.689056,159.277710 
	C304.759491,151.412888 335.409088,148.998260 366.287872,151.851257 
	C424.175934,157.199783 475.181213,178.958008 518.104858,218.397263 
	C555.940918,253.161880 580.639832,295.966187 592.800842,345.822418 
	C600.323486,376.662567 601.476990,407.971466 597.532288,439.470367 
	C591.061951,491.136139 570.102905,536.417419 535.411804,574.858337 
	C498.399719,615.871033 452.820648,643.202454 398.552032,655.396179 
	C370.998322,661.587219 343.140808,663.092224 315.169617,660.161255 
	C262.015778,654.591553 214.830933,634.423096 174.063690,599.866943 
	C135.037521,566.786621 108.221695,525.565308 93.853043,476.377472 
	C92.549278,471.914337 91.624191,467.340607 90.416763,462.409363 
M175.680206,227.179810 
	C160.514008,241.110565 147.123688,256.576599 135.871948,273.827850 
	C104.251373,322.308838 92.514816,375.526123 98.239456,432.861633 
	C101.825806,468.780975 112.669502,502.497986 132.511475,532.525330 
	C187.814087,616.216187 265.750519,655.068909 366.164825,647.746765 
	C392.316345,645.839722 417.343109,639.285034 441.225647,628.519043 
	C544.313477,582.047974 604.282227,477.528198 583.118530,360.844147 
	C570.281067,290.066040 531.343933,236.035919 469.964722,198.776443 
	C420.120667,168.519241 365.644775,159.111069 308.102295,166.271729 
	C257.806000,172.530640 214.065323,193.238846 175.680206,227.179810 
z"/>
<path fill="#000000" opacity="1.000000" stroke="none" 
	d="
M406.741730,837.982666 
	C406.738068,825.997742 406.709686,814.509949 406.748688,803.022278 
	C406.758606,800.098877 406.108948,796.660950 410.159851,795.702820 
	C414.312439,794.720520 417.384583,795.885376 419.698730,799.937256 
	C425.062408,809.328613 430.836487,818.485901 436.465332,827.725220 
	C437.223938,828.970337 438.104614,830.141113 439.742615,832.536377 
	C439.742615,821.305908 439.795258,811.409668 439.714233,801.514526 
	C439.685669,798.025818 440.706238,795.623657 444.598236,795.401245 
	C447.948456,795.209656 450.182373,796.475952 450.191040,800.130798 
	C450.228577,815.946777 450.217682,831.762878 450.195282,847.578979 
	C450.192230,849.726562 449.512909,851.702576 447.149567,852.136719 
	C444.139832,852.689697 441.043152,852.769104 439.061951,849.776062 
	C436.766144,846.307739 434.614105,842.744080 432.410309,839.215149 
	C427.674988,831.632629 422.946533,824.045959 417.306824,816.612305 
	C417.306824,826.672424 417.247986,836.733032 417.338104,846.792236 
	C417.370575,850.419617 416.165375,852.492798 412.201813,852.467224 
	C408.757935,852.444946 406.829956,851.018982 406.780151,847.469910 
	C406.738068,844.473633 406.752533,841.476562 406.741730,837.982666 
z"/>
<path fill="#000000" opacity="1.000000" stroke="none" 
	d="
M212.253403,806.131531 
	C213.504761,812.451843 212.358398,817.741882 207.423935,822.278259 
	C213.066498,826.179749 215.648453,831.411743 215.067291,837.822021 
	C214.290726,846.387695 207.731857,851.755310 197.534851,852.251282 
	C192.217865,852.509888 186.877975,852.259521 181.550186,852.346863 
	C177.745041,852.409180 176.008896,850.461548 176.005737,846.861328 
	C175.992432,831.706787 176.021606,816.552185 176.067139,801.397705 
	C176.078568,797.593750 177.830017,795.441467 181.877228,795.626892 
	C188.500961,795.930359 195.198547,794.803589 201.741104,796.681824 
	C206.629517,798.085144 210.561630,800.575073 212.253403,806.131531 
M188.166473,842.619324 
	C191.485809,842.623779 194.859604,843.009949 198.112106,842.545898 
	C203.375824,841.795044 205.976395,837.155579 204.092621,832.655701 
	C202.429016,828.681641 191.101624,825.419922 187.632080,827.961487 
	C187.145370,828.318054 186.598831,829.022217 186.607147,829.557190 
	C186.673019,833.799377 185.348480,838.140808 188.166473,842.619324 
M199.817810,806.419800 
	C196.616287,804.511658 193.092590,805.026733 189.637695,805.099365 
	C188.465073,805.124023 187.038696,805.299438 186.795090,806.625366 
	C186.136642,810.209106 185.434509,814.136841 187.056854,817.337097 
	C188.396210,819.979126 191.899109,818.344177 194.440506,818.563477 
	C195.226074,818.631287 196.065872,818.314453 196.853088,818.080444 
	C203.004547,816.251770 204.291046,812.232666 199.817810,806.419800 
z"/>
<path fill="#000000" opacity="1.000000" stroke="none" 
	d="
M291.625763,707.169006 
	C312.514038,701.064209 324.626495,717.567200 324.417725,732.844482 
	C324.326294,739.531860 324.534180,746.174316 321.107544,752.247131 
	C316.053497,761.204041 308.383972,765.868225 298.111328,765.021606 
	C288.084473,764.195251 281.190308,758.633606 277.716888,749.129761 
	C274.647583,740.731689 274.698761,732.092651 277.015991,723.623474 
	C279.080566,716.077881 283.689911,710.296692 291.625763,707.169006 
M289.423035,722.018433 
	C284.984772,730.559570 284.965973,739.277100 288.800232,747.947388 
	C290.949188,752.806763 294.970490,755.131592 300.385590,755.079102 
	C305.897247,755.025635 309.479797,752.202332 311.617432,747.411987 
	C314.901062,740.053528 314.710571,732.484680 312.113220,725.028931 
	C308.358978,714.252258 295.426422,712.517029 289.423035,722.018433 
z"/>
<path fill="#000000" opacity="1.000000" stroke="none" 
	d="
M498.870789,800.082397 
	C500.501160,802.000183 502.039001,803.558044 503.180084,805.366211 
	C504.477386,807.421997 505.316925,809.922546 502.657990,811.489807 
	C500.230408,812.920654 497.424896,814.052856 495.020325,811.155823 
	C494.277222,810.260437 493.633514,809.281433 492.875244,808.400085 
	C486.743622,801.272766 476.773651,802.379578 472.873718,810.990356 
	C468.904907,819.753174 469.096283,828.779724 473.355896,837.493591 
	C475.649994,842.186462 479.689117,844.184021 484.863190,843.652161 
	C489.823364,843.142151 492.271240,839.672913 494.033356,835.499939 
	C495.277069,832.554626 494.400085,831.068237 491.095551,831.058289 
	C487.111511,831.046326 482.182159,831.656921 482.467346,825.671875 
	C482.760620,819.516907 488.105804,821.543457 491.746521,821.069275 
	C492.728546,820.941406 493.741241,821.047913 494.739838,821.048462 
	C505.569489,821.054810 506.537415,822.137634 505.338104,832.903198 
	C504.083191,844.167664 495.975220,852.156860 484.756439,853.183289 
	C473.908478,854.175842 464.852875,847.644531 461.681885,836.673279 
	C459.320190,828.502075 458.825287,820.331116 461.314209,812.113770 
	C466.530823,794.890869 484.032684,789.135803 498.870789,800.082397 
z"/>
<path fill="#000000" opacity="1.000000" stroke="none" 
	d="
M270.167999,830.517334 
	C266.759949,845.064941 259.533722,852.373596 248.101212,853.220215 
	C237.622192,853.996216 228.675064,848.810669 224.668793,838.941833 
	C220.337280,828.271790 220.468933,817.457886 225.757355,807.094177 
	C229.977020,798.824951 236.976959,794.602478 246.340271,794.670959 
	C255.661072,794.739197 262.483246,798.976685 266.889221,807.211792 
	C270.761444,814.449219 270.645569,822.229553 270.167999,830.517334 
M232.378250,823.614929 
	C232.135406,827.866638 233.122238,831.929749 234.797440,835.744141 
	C236.948792,840.642761 240.471512,843.854004 246.289047,843.779968 
	C252.042480,843.706726 255.690094,840.658508 257.704956,835.634583 
	C260.739227,828.068726 260.669159,820.327820 257.794952,812.738708 
	C255.886292,807.698975 252.340454,804.421753 246.591339,804.301819 
	C241.294785,804.191345 236.891663,807.170959 234.673492,812.570007 
	C233.342850,815.808716 232.616547,819.232910 232.378250,823.614929 
z"/>
<path fill="#000000" opacity="1.000000" stroke="none" 
	d="
M315.093018,798.742310 
	C328.322083,809.756897 329.864746,834.037292 318.418640,846.314514 
	C307.210114,858.337036 286.653137,854.467346 280.370453,838.959534 
	C276.471497,829.335449 276.433167,819.389587 280.131897,809.693359 
	C285.605164,795.345093 301.275482,790.423035 315.093018,798.742310 
M306.144379,842.889893 
	C309.331909,841.730042 311.357208,839.329773 312.663269,836.366150 
	C316.175568,828.396057 316.492310,820.294373 313.021545,812.233887 
	C310.890808,807.285461 307.413849,804.058411 301.570068,804.276001 
	C295.891846,804.487427 292.287506,807.513489 290.276428,812.583435 
	C287.475494,819.644775 287.426453,826.889648 289.692871,834.050598 
	C292.158325,841.840332 297.076080,844.549194 306.144379,842.889893 
z"/>
<path fill="#000000" opacity="1.000000" stroke="none" 
	d="
M222.577209,744.973816 
	C222.577850,734.330505 222.612335,724.182190 222.564072,714.034302 
	C222.545578,710.141663 222.515854,706.529846 228.042801,706.646606 
	C233.572601,706.763428 233.340271,710.519409 233.313644,714.309570 
	C233.287918,717.969360 233.435150,721.634949 233.274002,725.287720 
	C233.136963,728.394714 234.154434,729.944397 237.501892,729.822083 
	C241.988022,729.658142 246.485184,729.691345 250.975098,729.774658 
	C253.777130,729.826660 254.827881,728.543579 254.784271,725.843872 
	C254.711777,721.353760 254.802521,716.860962 254.814789,712.369324 
	C254.825256,708.532837 256.470398,706.540405 260.576080,706.638794 
	C264.730316,706.738464 265.408295,709.159729 265.394989,712.584778 
	C265.335632,727.889832 265.333679,743.195496 265.405304,758.500488 
	C265.421936,762.053650 264.384766,764.288452 260.380768,764.296326 
	C256.541412,764.303894 254.950699,762.147400 254.849594,758.692688 
	C254.713364,754.038330 254.691544,749.374695 254.821854,744.720642 
	C254.908401,741.630005 253.898727,740.066223 250.559860,740.177673 
	C246.073242,740.327637 241.576447,740.273010 237.086426,740.184875 
	C234.296936,740.130127 233.228363,741.387756 233.284180,744.109924 
	C233.379639,748.765991 233.233337,753.426880 233.316452,758.083435 
	C233.389023,762.149597 231.756805,764.396423 227.450775,764.284790 
	C223.206207,764.174622 222.191650,761.568542 222.306244,757.935547 
	C222.437271,753.781250 222.490845,749.624634 222.577209,744.973816 
z"/>
<path fill="#000000" opacity="1.000000" stroke="none" 
	d="
M373.387390,803.216431 
	C369.545990,808.071716 366.030975,812.723633 362.263550,817.161133 
	C360.180359,819.614868 360.213776,821.645630 361.980896,824.260986 
	C366.452179,830.878662 370.789337,837.592529 374.976959,844.393005 
	C376.290863,846.526672 379.651367,849.248291 375.732666,851.490417 
	C372.665344,853.245422 368.870392,853.325195 366.412445,849.705139 
	C362.580017,844.060852 358.857941,838.341736 355.079987,832.660339 
	C354.265320,831.435242 353.411865,830.235962 352.445953,828.835876 
	C347.987457,831.956543 345.421783,835.608948 346.049072,841.079468 
	C346.293701,843.213013 346.040161,845.401917 346.041107,847.565613 
	C346.042755,851.209229 343.985962,852.590149 340.617981,852.514526 
	C337.467651,852.443909 335.648132,851.084106 335.655304,847.663269 
	C335.688446,831.850708 335.686920,816.037964 335.640228,800.225403 
	C335.630096,796.785339 337.464691,795.437866 340.606110,795.397278 
	C343.695374,795.357361 345.881134,796.636169 345.936188,799.976257 
	C346.045746,806.622375 345.968628,813.271606 345.968628,820.808350 
	C350.195221,817.130554 352.677490,813.119263 355.583679,809.487793 
	C358.494659,805.850342 361.349854,802.168152 364.259308,798.529480 
	C365.300293,797.227539 366.394409,795.959106 368.182831,795.637024 
	C370.824341,795.161255 373.780029,794.386353 375.617310,796.849121 
	C377.474518,799.338562 374.643372,800.991821 373.387390,803.216431 
z"/>
<path fill="#000000" opacity="1.000000" stroke="none" 
	d="
M410.976379,734.946655 
	C410.346252,738.310059 408.460022,739.435852 405.549500,739.389832 
	C401.053070,739.318604 396.554047,739.425964 392.056885,739.380188 
	C389.622650,739.355469 388.228088,740.268860 388.364929,742.880432 
	C388.373627,743.046387 388.356567,743.213440 388.357727,743.380005 
	C388.451813,756.990601 386.932739,754.329773 398.769684,754.563782 
	C402.266754,754.632874 405.766937,754.669495 409.263458,754.602600 
	C412.505524,754.540588 413.762299,756.328796 413.799103,759.251953 
	C413.835663,762.153931 412.571228,764.170105 409.441498,764.197144 
	C400.613739,764.273438 391.783478,764.320984 382.957184,764.185364 
	C379.531433,764.132690 377.869781,761.816040 377.856781,758.569702 
	C377.794769,743.078125 377.782684,727.585938 377.871124,712.094604 
	C377.891235,708.576965 379.727814,706.606567 383.533417,706.646057 
	C391.861664,706.732361 400.192139,706.740662 408.520203,706.645996 
	C412.182343,706.604370 413.714081,708.483643 413.701263,711.837219 
	C413.688232,715.252441 411.594147,716.374451 408.431885,716.328674 
	C403.268951,716.253845 398.099091,716.456665 392.941589,716.274780 
	C389.502869,716.153625 387.965942,717.399780 388.323822,720.905273 
	C388.475342,722.389221 388.437805,723.907043 388.335876,725.399231 
	C388.130890,728.400513 389.505402,729.650574 392.457672,729.593994 
	C396.620667,729.514221 400.793060,729.727356 404.949005,729.539368 
	C408.632690,729.372803 410.626556,730.875854 410.976379,734.946655 
z"/>
<path fill="#000000" opacity="1.000000" stroke="none" 
	d="
M363.690094,706.665161 
	C367.832062,706.575684 369.297760,708.683472 369.112030,712.021301 
	C368.925201,715.378479 366.718079,716.269592 363.610565,716.357788 
	C353.878632,716.633850 353.903748,716.714233 353.924011,726.484619 
	C353.945465,736.809998 353.920898,747.135559 353.909332,757.460999 
	C353.904938,761.376831 352.967163,764.432922 348.088013,764.286743 
	C343.414581,764.146729 342.850769,761.032471 342.851379,757.420288 
	C342.853363,745.429260 342.749207,733.436462 342.930145,721.448120 
	C342.988831,717.561340 341.694519,715.874512 337.741608,716.290710 
	C335.930756,716.481384 334.077393,716.225159 332.250275,716.314270 
	C328.811920,716.481873 327.306213,714.598145 327.309845,711.477356 
	C327.313477,708.363892 328.798309,706.603271 332.250244,706.634521 
	C342.575012,706.728088 352.901154,706.662903 363.690094,706.665161 
z"/>
<path fill="#000000" opacity="1.000000" stroke="none" 
	d="
M436.135864,754.526367 
	C441.847168,754.570862 447.169556,754.642090 452.491180,754.605713 
	C455.631836,754.584229 457.149750,756.158264 457.102509,759.162048 
	C457.057800,762.002014 455.691040,764.103027 452.659302,764.149658 
	C444.512543,764.275085 436.361450,764.275879 428.214600,764.155457 
	C424.755402,764.104370 423.102234,761.758423 423.087585,758.567505 
	C423.016083,742.936401 423.042847,727.304504 423.125916,711.673279 
	C423.145660,707.955200 425.231323,706.455566 428.966064,706.642700 
	C432.775299,706.833618 433.771332,709.094482 433.704956,712.280090 
	C433.452271,724.408264 434.449585,736.536987 433.607788,748.671753 
	C433.466949,750.701660 432.506897,753.509949 436.135864,754.526367 
z"/>
<path fill="#000000" opacity="1.000000" stroke="none" 
	d="
M395.307983,847.580688 
	C395.098206,852.270264 392.184631,852.664307 388.943420,852.425903 
	C385.458252,852.169556 384.718201,849.778503 384.722076,846.798462 
	C384.741791,831.631897 384.768097,816.465088 384.703796,801.298828 
	C384.687164,797.369751 386.419128,795.374695 390.345551,795.324524 
	C394.721039,795.268616 395.397614,798.001343 395.376068,801.628296 
	C395.285980,816.794434 395.327362,831.961304 395.307983,847.580688 
z"/>
<path fill="#000000" opacity="1.000000" stroke="none" 
	d="
M200.081741,388.000000 
	C200.081940,444.784912 200.081940,501.069855 200.081940,556.806030 
	C201.565552,558.349243 202.789688,558.026672 203.920166,558.026978 
	C230.914368,558.034546 257.908569,558.034912 284.902771,558.019531 
	C291.627991,558.015686 291.638763,557.988403 291.647583,551.495850 
	C291.659149,542.997620 291.626190,534.499329 291.657501,526.001221 
	C291.715973,510.141052 304.500244,497.457977 320.760315,497.092651 
	C337.223785,496.722748 351.124725,509.626526 351.350067,525.644775 
	C351.478973,534.807434 351.493988,543.976624 351.286957,553.136719 
	C351.202209,556.886353 352.634705,558.077148 356.244751,558.069092 
	C383.571747,558.007996 410.899078,558.047546 438.225983,558.146851 
	C440.467255,558.155090 441.520264,557.559570 441.970093,555.275269 
	C442.550415,552.328125 444.540955,550.791870 447.661896,550.677002 
	C450.591156,550.569275 452.541962,551.894836 453.340637,554.561707 
	C454.170563,557.333069 455.946472,558.110107 458.587952,558.046631 
	C460.914032,557.990784 463.313629,558.058350 465.292938,559.533264 
	C467.555756,561.219421 468.164368,563.573364 467.395294,566.210266 
	C466.592987,568.961182 464.503357,570.198730 461.766998,570.333801 
	C456.944000,570.572083 452.116577,570.880615 447.290924,570.882568 
	C359.976135,570.917419 272.661377,570.914001 185.346588,570.893860 
	C183.192184,570.893372 180.992371,570.832642 178.893860,570.405945 
	C175.526825,569.721313 173.685349,567.418701 173.805389,563.985657 
	C173.920303,560.698853 176.019379,559.112915 179.131088,558.298584 
	C181.806030,557.598633 185.428833,559.412781 187.060898,556.636169 
	C188.646774,553.938293 187.623993,550.434509 187.625687,547.292358 
	C187.659241,484.638947 187.613647,421.985474 187.723434,359.332245 
	C187.731674,354.629425 187.263794,351.823181 181.391205,352.122009 
	C176.116089,352.390411 173.694778,348.317749 175.620468,343.243927 
	C179.046814,334.216034 182.749939,325.293518 186.297943,316.311371 
	C187.632370,312.933136 189.997681,311.556091 193.653107,311.589020 
	C206.315994,311.703217 218.980682,311.602051 231.644501,311.641907 
	C234.516357,311.650940 236.919418,311.643372 236.942627,307.615173 
	C236.964874,303.754303 234.900085,303.261658 231.845276,303.383514 
	C228.850800,303.502991 225.847595,303.412659 222.848267,303.400055 
	C208.885315,303.341339 199.092621,294.103058 198.835678,280.186035 
	C198.574280,266.027344 198.615112,251.857117 198.842560,237.697052 
	C199.048920,224.849350 208.419708,215.709366 221.192551,215.701630 
	C287.678467,215.661392 354.164398,215.661133 420.650269,215.712173 
	C433.755341,215.722244 443.007111,224.794769 443.226074,238.030472 
	C443.460327,252.190247 443.430267,266.358826 443.240936,280.519897 
	C443.061584,293.932739 433.356140,303.305511 419.964844,303.398315 
	C416.299103,303.423737 412.630005,303.501984 408.968170,303.381927 
	C405.977417,303.283844 404.322021,304.119080 404.227509,307.535583 
	C404.129059,311.094971 405.924591,311.669617 408.862030,311.654449 
	C421.359009,311.589966 433.862396,311.861969 446.351074,311.536011 
	C451.586609,311.399353 454.155731,313.374695 455.865234,318.191925 
	C458.646240,326.028717 462.058075,333.642334 465.226318,341.340851 
	C468.190033,348.542206 465.965637,352.215729 458.110840,352.219513 
	C454.179230,352.221405 453.228790,353.870148 453.391907,357.326599 
	C453.627167,362.313904 453.670410,367.311737 453.722168,372.305847 
	C453.776825,377.576843 451.242859,380.966766 447.415558,380.883820 
	C443.810608,380.805664 441.703857,377.767090 441.660309,372.447205 
	C441.616699,367.115326 441.547455,361.780579 441.675659,356.451569 
	C441.747040,353.485016 440.652588,352.060120 437.605713,352.305511 
	C436.612640,352.385559 435.607239,352.309326 434.607452,352.309296 
	C358.790161,352.308380 282.972900,352.306732 207.155609,352.309387 
	C200.093735,352.309662 200.079910,352.322357 200.072311,359.509277 
	C200.062439,368.839508 200.077316,378.169769 200.081741,388.000000 
M365.500000,228.268295 
	C318.201813,228.259628 270.903625,228.241150 223.605438,228.251495 
	C215.334412,228.253311 211.399399,232.161057 211.361343,240.470062 
	C211.301834,253.460114 211.279480,266.451263 211.383453,279.440796 
	C211.442169,286.776062 215.578369,290.902466 222.833908,291.035858 
	C228.494308,291.139984 234.158386,291.037476 239.820831,291.037903 
	C298.610443,291.042419 357.400085,291.051544 416.189697,291.053070 
	C427.293976,291.053375 430.653320,287.631042 430.659729,276.353790 
	C430.666565,264.362701 430.696869,252.371521 430.658722,240.380554 
	C430.631531,231.828903 427.070801,228.287231 418.461365,228.271378 
	C401.140961,228.239471 383.820496,228.266953 365.500000,228.268295 
M380.500000,324.191467 
	C331.539337,324.189484 282.578674,324.188599 233.618011,324.184570 
	C222.793396,324.183685 211.968719,324.153564 201.144196,324.181976 
	C199.206772,324.187042 196.880600,323.684753 195.906937,326.064209 
	C194.047638,330.608063 191.823624,335.044098 190.816010,340.211609 
	C277.493073,340.211609 363.779724,340.211609 450.253754,340.211609 
	C450.414368,336.631989 448.389069,334.153809 447.728973,331.309296 
	C446.438751,325.749939 443.389252,323.865479 437.450989,324.010406 
	C418.810272,324.465393 400.151672,324.186127 380.500000,324.191467 
M336.105682,516.481018 
	C329.968750,509.494995 322.654175,507.270294 315.180420,510.116669 
	C307.403809,513.078369 303.390076,519.270691 303.350983,528.484314 
	C303.316376,536.640015 303.463318,544.798584 303.282990,552.950439 
	C303.204773,556.485535 304.231262,558.153992 308.039764,558.085449 
	C317.024841,557.923706 326.015747,557.950073 335.002167,558.065491 
	C338.377869,558.108887 339.778381,556.915161 339.700806,553.401367 
	C339.524445,545.415955 339.514465,537.420776 339.700409,529.435791 
	C339.804932,524.948303 338.837708,520.877441 336.105682,516.481018 
M391.082855,310.599426 
	C392.501221,303.894073 392.148438,303.424194 385.400970,303.422272 
	C342.128326,303.409912 298.855682,303.408783 255.583023,303.405670 
	C254.584579,303.405609 253.586151,303.428894 252.587692,303.435699 
	C250.615723,303.449158 249.585724,304.325928 249.357895,306.397858 
	C248.948639,310.119904 250.003647,311.737305 254.209839,311.723846 
	C298.314209,311.582489 342.419189,311.633698 386.523987,311.603699 
	C387.832550,311.602814 389.140961,311.296173 391.082855,310.599426 
z"/>
<path fill="#000000" opacity="1.000000" stroke="none" 
	d="
M545.450806,457.670654 
	C547.613525,482.072723 540.768494,503.340637 525.213196,521.433960 
	C508.002686,541.452576 485.583008,550.902405 459.313904,550.204956 
	C416.381805,549.065247 382.960510,517.240112 377.564056,477.798737 
	C374.569824,455.914856 378.713226,435.808411 391.145050,417.479614 
	C391.513519,416.936340 391.779968,416.320984 392.061432,415.723877 
	C392.121887,415.595673 392.041199,415.400879 391.998138,414.949310 
	C387.830841,413.862549 383.492432,414.485229 379.211884,414.326904 
	C373.114929,414.101410 370.001862,411.153412 369.910217,405.021729 
	C369.780823,396.363220 369.774567,387.699951 369.901276,379.041473 
	C369.991852,372.852600 373.037018,369.797974 379.149170,369.724579 
	C388.307922,369.614624 397.470032,369.620209 406.628784,369.733368 
	C412.616821,369.807343 415.521545,372.543304 415.855164,378.550842 
	C416.111053,383.159302 415.906067,387.793335 415.906067,393.079041 
	C421.710724,390.496399 426.563171,388.018707 431.635101,386.130585 
	C477.064209,369.219086 528.187805,394.150208 542.364319,440.099915 
	C544.078674,445.656433 545.505615,451.314636 545.450806,457.670654 
M389.331604,472.141235 
	C389.783752,475.266663 390.015167,478.442963 390.722137,481.509674 
	C397.956268,512.889526 427.479431,541.644104 468.848511,537.904663 
	C506.543335,534.497253 539.665649,499.232269 533.153320,454.427368 
	C528.864319,424.918945 511.266937,405.092072 482.614471,396.498138 
	C454.758484,388.143127 429.704620,394.551880 409.123810,415.085938 
	C393.794373,430.380615 387.702118,449.597992 389.331604,472.141235 
M403.617004,399.862885 
	C403.640015,395.055206 403.573883,390.244812 403.719269,385.440826 
	C403.807373,382.529022 402.784607,381.153687 399.714264,381.247955 
	C395.241943,381.385254 390.758240,381.401825 386.287201,381.245667 
	C382.935791,381.128571 381.948242,382.738861 382.042908,385.789917 
	C382.171417,389.931091 382.186493,394.081665 382.065521,398.222809 
	C381.973999,401.355194 383.150848,402.786194 386.418701,402.666443 
	C390.723541,402.508728 395.038696,402.644623 399.349304,402.628418 
	C401.003723,402.622223 402.757721,402.760284 403.617004,399.862885 
z"/>
<path fill="#000000" opacity="1.000000" stroke="none" 
	d="
M344.111511,451.017883 
	C344.109039,457.172363 344.237671,462.834351 344.067749,468.487366 
	C343.897858,474.139099 340.984192,477.124451 335.333954,477.226135 
	C326.017731,477.393768 316.694061,477.400360 307.378021,477.230499 
	C301.782257,477.128479 298.796692,474.030426 298.718384,468.423035 
	C298.590607,459.271912 298.592773,450.116577 298.711700,440.965240 
	C298.783875,435.411652 301.502106,432.756836 307.091705,432.696503 
	C316.410004,432.595917 325.730530,432.610535 335.049316,432.679474 
	C341.012329,432.723541 343.823700,435.514893 344.074982,441.535889 
	C344.199768,444.526367 344.106415,447.525970 344.111511,451.017883 
M313.967865,444.295563 
	C311.509735,444.246613 310.299683,445.355286 310.351135,447.909363 
	C310.424927,451.570129 310.642975,455.260925 310.289398,458.889221 
	C309.809937,463.808990 311.831238,465.127258 316.548187,465.091034 
	C332.247070,464.970459 332.112610,465.128845 331.973724,449.502045 
	C331.935791,445.236725 330.324615,443.954254 326.350250,444.205231 
	C322.536591,444.446075 318.695953,444.260468 313.967865,444.295563 
z"/>
<path fill="#000000" opacity="1.000000" stroke="none" 
	d="
M234.002243,539.421265 
	C228.656311,538.819885 226.768341,535.609680 226.720703,531.123535 
	C226.623566,521.975159 226.601196,512.823669 226.731918,503.676147 
	C226.806656,498.445801 229.392090,495.381805 234.583252,495.201630 
	C244.218430,494.867157 253.877487,494.884369 263.516296,495.141357 
	C267.966919,495.260010 271.009521,497.836761 271.452911,502.575317 
	C272.353302,512.198120 272.290009,521.854919 271.594910,531.469788 
	C271.183899,537.154785 268.754272,539.373169 262.845001,539.668945 
	C253.382660,540.142578 243.895981,540.243469 234.002243,539.421265 
M259.715515,514.588928 
	C259.714142,506.341797 259.714142,506.341766 251.354492,506.347076 
	C250.857346,506.347382 250.360153,506.342346 249.863083,506.348663 
	C236.390289,506.519135 238.472107,504.765045 238.408401,518.060181 
	C238.356384,528.917603 236.991364,527.638611 247.792328,527.691345 
	C259.714691,527.749512 259.714905,527.705078 259.715515,514.588928 
z"/>
<path fill="#000000" opacity="1.000000" stroke="none" 
	d="
M269.502380,474.475220 
	C267.205322,476.842804 264.665436,477.315674 261.899658,477.302704 
	C253.403625,477.262878 244.906586,477.355652 236.411301,477.266571 
	C229.586838,477.195038 226.761093,474.314972 226.703934,467.446320 
	C226.633224,458.950653 226.627991,450.453552 226.696442,441.957916 
	C226.749100,435.422272 229.340759,432.742340 235.707031,432.686218 
	C244.702316,432.606934 253.699524,432.601471 262.694611,432.692322 
	C268.348785,432.749451 271.109955,434.996399 271.567413,440.658356 
	C272.331940,450.120850 272.196136,459.624390 271.659302,469.106720 
	C271.556335,470.924988 271.075317,472.735840 269.502380,474.475220 
M238.432007,447.149567 
	C238.867554,469.053833 234.427414,464.412048 255.141983,465.002747 
	C255.472748,465.012207 255.804596,464.973541 256.135986,464.972595 
	C258.598450,464.965363 259.732056,463.757324 259.702942,461.273132 
	C259.650482,456.797699 259.653503,452.320496 259.716309,447.845215 
	C259.751740,445.322388 258.595612,444.237305 256.108673,444.266266 
	C251.467468,444.320343 246.825165,444.272858 242.183502,444.300140 
	C240.641617,444.309204 239.172134,444.547333 238.432007,447.149567 
z"/>
<path fill="#000000" opacity="1.000000" stroke="none" 
	d="
M321.998901,369.694916 
	C326.828125,369.703583 331.164642,369.568878 335.487061,369.757751 
	C340.768799,369.988525 343.918884,372.981903 344.033752,378.243439 
	C344.233673,387.399170 344.234009,396.565155 344.045990,405.721252 
	C343.931885,411.279144 340.784363,414.204559 335.109131,414.278992 
	C325.950287,414.399139 316.787720,414.399658 307.628784,414.284882 
	C301.626068,414.209686 298.760529,411.312775 298.697662,405.338745 
	C298.603027,396.345917 298.598663,387.350494 298.704285,378.357880 
	C298.766815,373.033081 301.664978,370.001923 307.012146,369.757721 
	C311.832306,369.537598 316.669983,369.700806 321.998901,369.694916 
M310.352478,395.353821 
	C310.372986,402.642639 310.372986,402.644409 317.724609,402.646881 
	C321.055237,402.648010 324.390686,402.527466 327.715027,402.670563 
	C330.701752,402.799164 331.976868,401.582550 331.907990,398.588074 
	C331.808472,394.260712 331.793091,389.926208 331.927399,385.600494 
	C332.028046,382.359131 330.626740,381.015106 327.447540,381.263611 
	C326.123718,381.367096 324.784485,381.269836 323.452240,381.269531 
	C310.353088,381.266663 310.353088,381.267029 310.352478,395.353821 
z"/>
<path fill="#000000" opacity="1.000000" stroke="none" 
	d="
M229.088318,411.916565 
	C228.443893,411.053284 227.869888,410.531769 227.764587,409.928467 
	C225.723404,398.234619 226.275955,386.463165 227.436005,374.772949 
	C227.791275,371.192627 231.616180,369.777527 235.191940,369.744659 
	C244.507004,369.658997 253.826263,369.585541 263.138214,369.779175 
	C268.391754,369.888428 271.190948,372.427887 271.567566,377.735229 
	C272.250092,387.354370 272.438416,397.017975 271.443024,406.630310 
	C270.893280,411.939484 268.202637,414.211945 262.810242,414.277069 
	C253.828247,414.385590 244.843872,414.282715 235.860794,414.327850 
	C233.433441,414.340027 231.264862,413.764954 229.088318,411.916565 
M238.375702,398.979065 
	C238.278778,401.444427 239.424011,402.425934 241.926041,402.675293 
	C259.585205,404.435303 260.040710,404.058319 259.734009,386.373352 
	C259.725372,385.875061 259.697876,385.375214 259.724335,384.878510 
	C259.857910,382.373810 258.701752,381.225891 256.175323,381.258942 
	C251.524521,381.319794 246.871567,381.345795 242.221359,381.270905 
	C239.503265,381.227173 238.277893,382.336609 238.343552,385.119568 
	C238.445419,389.436584 238.367310,393.757812 238.375702,398.979065 
z"/>
<path fill="#000000" opacity="1.000000" stroke="none" 
	d="
M312.786987,268.452728 
	C309.324432,279.324860 300.457245,285.799347 290.777679,284.801758 
	C279.406982,283.629913 271.810974,275.937103 270.754730,264.223755 
	C270.352631,259.764679 270.392517,255.285049 271.751312,250.887436 
	C274.569183,241.767944 281.511322,236.092682 290.595428,235.688492 
	C300.528809,235.246536 308.226898,240.018982 311.799255,249.033722 
	C314.251892,255.222931 314.859650,261.588684 312.786987,268.452728 
M301.548157,253.222610 
	C298.150055,247.337646 294.059204,245.380524 289.011017,247.224640 
	C283.232391,249.335556 280.133911,256.245056 281.710876,263.503662 
	C283.127533,270.024445 287.405792,273.950043 292.758179,273.640259 
	C297.116302,273.388000 301.270203,269.737427 302.308929,264.759399 
	C303.055420,261.181671 303.208710,257.501801 301.548157,253.222610 
z"/>
<path fill="#000000" opacity="1.000000" stroke="none" 
	d="
M252.101761,243.445618 
	C252.328812,241.859726 252.370789,240.651810 252.778519,239.583496 
	C253.776337,236.969040 255.765045,235.500153 258.587830,235.849136 
	C261.630798,236.225327 263.326965,238.108124 263.352203,241.266235 
	C263.450653,253.588562 263.583130,265.911011 263.586487,278.233429 
	C263.587433,281.631561 261.987793,284.090729 258.267975,284.214417 
	C254.652039,284.334595 252.673538,282.154480 252.304703,278.770599 
	C251.981293,275.803497 252.056656,272.781708 252.116013,269.787262 
	C252.178345,266.642700 250.875626,265.092590 247.636093,265.387787 
	C246.975464,265.448029 246.304108,265.390137 245.637695,265.387451 
	C238.330002,265.357849 238.333344,265.357880 238.330048,272.861633 
	C238.329254,274.694031 238.377396,276.531219 238.265320,278.357758 
	C238.052948,281.818909 236.321793,284.110992 232.718216,284.177765 
	C229.103943,284.244751 227.351669,281.899536 226.882736,278.555359 
	C226.676056,277.081329 226.761917,275.562500 226.761414,274.063995 
	C226.757950,263.901001 226.770050,253.737991 226.770325,243.574982 
	C226.770432,239.531052 227.780380,235.882141 232.571259,235.880615 
	C237.357468,235.879105 238.427704,239.457382 238.323715,243.554825 
	C238.289902,244.886673 238.324997,246.220352 238.333893,247.553177 
	C238.383881,255.031464 238.384445,255.031464 245.709274,254.967773 
	C252.040237,254.912720 252.040237,254.912735 252.101761,243.445618 
z"/>
<path fill="#000000" opacity="1.000000" stroke="none" 
	d="
M355.778107,261.999176 
	C355.786316,255.668915 355.713104,249.836838 355.825928,244.008392 
	C355.943146,237.954071 358.030060,235.850189 363.941284,235.734497 
	C368.437195,235.646530 372.936951,235.692291 377.434113,235.747971 
	C381.113617,235.793518 384.150635,236.823196 384.243469,241.253006 
	C384.336212,245.680283 381.449921,246.876251 377.686310,246.959381 
	C375.521423,247.007202 373.355011,247.079636 371.190887,247.044052 
	C368.523895,247.000214 367.284149,248.069687 367.272156,250.905319 
	C367.259735,253.842926 368.641724,254.678818 371.273651,254.589798 
	C373.768463,254.505417 376.269836,254.633942 378.768433,254.641998 
	C382.433807,254.653824 383.805695,256.949371 383.827362,260.127502 
	C383.848541,263.229401 382.104553,265.113403 378.914307,265.290924 
	C376.588501,265.420349 374.246368,265.461487 371.921265,265.345673 
	C368.971558,265.198853 367.230408,265.866608 367.241547,269.413330 
	C367.252136,272.793945 368.630341,273.822296 371.762207,273.623047 
	C374.248566,273.464935 376.757874,273.601959 379.254395,273.685547 
	C382.256165,273.786072 383.856842,275.506042 384.048218,278.391235 
	C384.251404,281.454620 382.801056,283.950287 379.727356,284.106201 
	C373.420135,284.426239 367.061768,284.470795 360.767548,284.023010 
	C357.330505,283.778473 355.882782,280.840851 355.836273,277.490997 
	C355.766907,272.494324 355.792938,267.496368 355.778107,261.999176 
z"/>
<path fill="#000000" opacity="1.000000" stroke="none" 
	d="
M317.943146,236.645294 
	C327.246185,234.938293 336.219574,235.810135 345.161987,235.927719 
	C348.338745,235.969467 350.304749,238.105026 350.249512,241.543884 
	C350.194611,244.963654 348.283661,247.186188 345.017365,246.893982 
	C338.747650,246.333130 337.998627,249.562881 338.233734,254.690872 
	C338.576233,262.161072 338.276459,269.659119 338.331696,277.144684 
	C338.361389,281.164307 337.096741,284.257050 332.569061,284.195343 
	C328.078308,284.134186 326.797852,280.883759 326.778839,276.994629 
	C326.738220,268.677063 326.651123,260.356476 326.833771,252.042648 
	C326.913239,248.424896 325.663330,247.104446 321.971497,246.972931 
	C315.445892,246.740433 313.733673,242.526062 317.943146,236.645294 
z"/>
<path fill="#000000" opacity="1.000000" stroke="none" 
	d="
M390.843048,241.529282 
	C391.633759,237.493759 393.678284,235.307556 397.494720,235.883484 
	C401.322632,236.461136 402.396484,239.251480 402.363800,242.828812 
	C402.286499,251.297806 402.501495,259.772217 402.277252,268.235931 
	C402.172089,272.206177 403.838989,273.671997 407.537689,273.576599 
	C409.362000,273.529510 411.190796,273.610779 413.016388,273.670563 
	C416.294769,273.777863 417.845642,275.640381 417.853455,278.771118 
	C417.861053,281.809875 416.452667,284.077911 413.248688,284.199615 
	C407.777679,284.407501 402.264923,284.599609 396.822235,284.154938 
	C391.704590,283.736786 390.789215,279.605286 390.772675,275.353760 
	C390.729370,264.227386 390.780640,253.100632 390.843048,241.529282 
z"/>
<path fill="#000000" opacity="1.000000" stroke="none" 
	d="
M507.003601,439.518188 
	C488.921692,457.750824 471.089142,475.690704 453.178345,493.552185 
	C449.251129,497.468628 445.288483,497.483673 441.348022,493.611786 
	C433.277283,485.681580 425.278687,477.674683 417.392853,469.560852 
	C412.949188,464.988708 412.770081,460.479736 416.471100,456.820404 
	C419.876373,453.453583 424.962311,453.988068 429.190186,458.222687 
	C434.010956,463.051178 438.900940,467.818481 443.541077,472.816376 
	C446.164642,475.642181 448.004425,475.680573 450.790070,472.836060 
	C464.762085,458.568726 478.951111,444.514221 493.005920,430.327484 
	C495.346588,427.964844 497.777618,426.273987 501.307312,426.691589 
	C507.157867,427.383728 509.623657,432.526794 507.003601,439.518188 
z"/>
</svg>